<svg width="135" height="35" viewBox="0 0 135 35" fill="none" xmlns="http://www.w3.org/2000/svg">
<path d="M21.3653 18.5277C21.3284 15.6719 22.4385 13.4868 24.7298 11.9018C23.4352 9.83849 21.513 8.68653 19.0002 8.44878C18.1143 8.36953 16.9673 8.56766 15.5619 9.16203C14.0458 9.75641 13.1968 10.0734 13.0122 10.0734C12.6062 10.0734 11.8652 9.83566 10.7209 9.32053C9.61084 8.80541 8.65107 8.56765 7.83633 8.56765C6.50479 8.60728 5.24971 9.00353 4.10273 9.75924C2.95576 10.5517 2.03291 11.6245 1.33154 12.9745C0.445605 14.6416 0 16.6653 0 19.0061C0 21.109 0.332226 23.212 0.962402 25.315C1.55303 27.3387 2.33086 29.085 3.29063 30.5936C4.13965 31.9833 4.84365 32.974 5.47119 33.608C6.35713 34.5986 7.28262 35.0373 8.24238 34.9977C8.83301 34.958 9.64775 34.7203 10.6075 34.2448C11.5304 33.8089 12.4559 33.5712 13.3787 33.5712C14.2277 33.5712 15.1163 33.8089 16.0392 34.2448C17.0754 34.7203 17.8875 34.958 18.552 34.958C19.5144 34.9184 20.4003 34.4429 21.2493 33.608C21.5446 33.3306 21.8769 32.9343 22.2117 32.456C22.5439 31.9805 22.95 31.3833 23.3587 30.7097C23.654 30.2341 23.9493 29.6766 24.2077 29.1218C24.503 28.5671 24.7614 27.9699 24.9829 27.3359C25.0937 27.0981 25.1675 26.8207 25.2782 26.5433C25.352 26.266 25.4628 25.9886 25.5366 25.7112C24.7614 25.3546 24.0574 24.7998 23.4299 24.1234C22.0693 22.5752 21.3653 20.7496 21.3653 18.5277Z" fill="white"/>
<path d="M44.0649 24.7999H43.9146L37.5575 8.9668H32.5662V34.4798H36.893V17.9334H37.1145L42.438 31.0692H45.4676L50.7542 17.9334H50.9757V34.4798H55.3764V8.9668H50.422L44.0649 24.7999Z" fill="white"/>
<path d="M17.4104 5.59282C18.5204 4.08423 19.0741 2.45676 19.0741 0.713255V0.35663L19.0372 0C18.262 0.0396252 17.4473 0.317003 16.5982 0.792505C15.7492 1.26801 15.0083 1.90484 14.4546 2.65772C13.3076 4.12669 12.7539 5.71452 12.7539 7.37878V7.69578L12.7908 8.01279C14.5284 8.25054 16.0445 7.41841 17.4104 5.59282Z" fill="white"/>
<path d="M111.085 8.9668H106.204V34.5222H111.085V8.9668Z" fill="white"/>
<path d="M125.869 13.0137C128.754 13.0137 130.304 15.4337 130.304 18.0546H135V17.497C135 12.5779 131.525 8.45117 125.832 8.45117C119.733 8.45117 116.074 12.8156 116.074 20.2765V23.1719C116.074 30.6328 119.697 34.9576 125.795 34.9576C131.636 34.9576 134.963 30.7913 134.963 26.1495V25.5947H130.267C130.267 28.2128 128.751 30.4347 125.869 30.4347C122.911 30.4347 121.025 28.1336 121.025 23.2116V20.3161C121.065 15.4337 122.95 13.0137 125.869 13.0137Z" fill="white"/>
<path d="M74.0812 25.0773C74.0812 28.4907 72.2329 30.3955 69.5355 30.3955C66.8382 30.3955 64.9898 28.5303 64.9898 25.0773V8.9668H60.1436V25.8302C60.1436 31.2673 63.6926 34.9977 69.5698 34.9977C75.4102 34.9977 78.9961 31.3069 78.9961 25.8302V8.9668H74.1182V25.0773H74.0812Z" fill="white"/>
<path d="M95.1144 19.6002L91.6392 18.7284C89.5693 18.2529 88.4962 17.2594 88.4962 15.7933C88.4962 13.8092 89.9754 12.578 92.3405 12.578C95.001 12.578 96.3325 14.2451 96.4433 16.0311H100.989C100.952 11.5081 97.4769 8.37207 92.3379 8.37207C87.4573 8.37207 83.613 11.1487 83.613 16.1896C83.613 20.5144 86.3104 22.5381 89.5641 23.3334L93.0393 24.2052C95.3675 24.7996 96.5514 25.6345 96.5514 27.3809C96.5514 29.3649 95.1091 30.715 92.3748 30.715C89.4533 30.715 87.9398 29.0479 87.7922 27.1431H83.0962C83.17 30.7546 85.3506 34.9606 92.1533 34.9606C97.846 34.9606 101.395 31.8642 101.395 26.8657C101.361 22.2183 98.5157 20.4323 95.1144 19.6002Z" fill="white"/>
</svg>
