<svg width="70" height="70" viewBox="0 0 70 70" fill="none" xmlns="http://www.w3.org/2000/svg">
<path d="M69.9863 17.8726C69.9863 15.7257 69.8086 13.5788 69.2891 11.4866C68.373 7.65775 66.1855 4.74507 62.9316 2.59816C61.2637 1.5042 59.418 0.834147 57.4492 0.478609C55.9453 0.205118 54.4141 0.0820473 52.8965 0.0410236L52.5273 0H17.459C17.0215 0.0410236 16.5703 0.0546982 16.1328 0.0820473C13.959 0.205118 11.7988 0.437585 9.73437 1.25806C5.85156 2.78961 3.03516 5.48349 1.39453 9.35339C0.820313 10.6661 0.533203 12.0609 0.328125 13.4694C0.164062 14.6044 0.0683594 15.7668 0.0273438 16.9154L0 17.1889V52.8384C0.0273438 53.2487 0.0410156 53.6589 0.0683594 54.0692C0.21875 56.4485 0.519531 58.8142 1.53125 61.0021C3.41797 65.1455 6.60352 67.8668 10.9648 69.1658C12.1816 69.5487 13.4531 69.7128 14.7383 69.8222C16.3516 69.9863 17.9785 70 19.5918 70H51.7617C53.293 70 54.8105 69.9043 56.3418 69.6992C58.748 69.3983 61.0039 68.6872 63.041 67.3471C65.4883 65.7335 67.334 63.5866 68.5234 60.9064C69.0703 59.6757 69.3711 58.363 69.6035 57.0502C69.9316 55.0811 70 53.0846 70 51.0881C69.9863 40.0117 70 28.9353 69.9863 17.859V17.8726ZM51.2559 29.5097V46.1653C51.2559 47.3823 51.0918 48.5857 50.5449 49.6796C49.6973 51.4026 48.3301 52.4829 46.498 53.0025C45.4863 53.3034 44.4336 53.4538 43.3809 53.5085C40.6191 53.6452 38.2129 51.7718 37.7207 49.0369C37.2969 46.7806 38.377 44.2919 40.7559 43.1295C41.6855 42.6783 42.6973 42.4048 43.7227 42.1996C44.8301 41.9672 45.9375 41.7484 47.0312 41.4886C47.8379 41.3108 48.3574 40.8185 48.5215 39.9844L48.5762 39.4237C48.5762 34.1317 48.5762 28.8259 48.5762 23.5339L48.4941 23.0006C48.3848 22.563 48.0566 22.2895 47.6055 22.3169C47.1406 22.3442 46.6895 22.4126 46.2246 22.5083C43.9961 22.9459 41.7812 23.3835 39.5664 23.8347L28.7793 26.009L28.6289 26.05C27.8223 26.2825 27.5352 26.638 27.4941 27.4858V27.855C27.4805 35.4444 27.4941 43.0338 27.4805 50.6232C27.4805 51.8539 27.3438 53.0572 26.8516 54.2059C26.0449 56.0793 24.6094 57.2553 22.668 57.8023C21.6426 58.1031 20.5898 58.2672 19.5234 58.3083C16.7344 58.4177 14.4102 56.5579 13.9316 53.8093C13.5215 51.4436 14.6016 48.8865 17.2949 47.7515C18.3477 47.3139 19.4277 47.0815 20.5352 46.849C21.3691 46.6849 22.2168 46.5071 23.0371 46.343C24.1582 46.1106 24.7324 45.3995 24.7871 44.2645V43.8269C24.7871 35.1846 24.7871 26.556 24.7871 17.9137C24.7871 17.5444 24.8281 17.1889 24.9102 16.8334C25.1152 15.9992 25.7031 15.5206 26.5098 15.3292C27.248 15.1377 28.0137 15.001 28.7656 14.8369C30.9121 14.3993 33.0313 13.9754 35.1777 13.5515L41.7949 12.2114C43.75 11.8285 45.7051 11.4319 47.6602 11.0354C48.3027 10.9123 48.9453 10.7755 49.6016 10.7208C50.5039 10.6388 51.1328 11.2131 51.2148 12.1293C51.2422 12.3481 51.2559 12.5669 51.2559 12.772C51.2559 18.3512 51.2559 23.9168 51.2559 29.5097Z" fill="white"/>
</svg>
