<svg width="70" height="70" viewBox="0 0 70 70" fill="none" xmlns="http://www.w3.org/2000/svg">
<path d="M34.9853 23.3249C28.5601 23.3249 23.3106 28.5746 23.3106 35C23.3106 41.4254 28.5601 46.6751 34.9853 46.6751C41.4105 46.6751 46.6601 41.4254 46.6601 35C46.6601 28.5746 41.4105 23.3249 34.9853 23.3249ZM69.9958 35C69.9958 30.1605 70.0369 25.3756 69.7634 20.5497C69.49 14.9446 68.2187 9.98203 64.1175 5.88072C60.0163 1.77942 55.0538 0.508012 49.4489 0.234592C44.6095 -0.0388289 39.8248 0.00218413 34.999 0.00218413C30.1596 0.00218413 25.3749 -0.0388289 20.5492 0.234592C14.9442 0.508012 9.98175 1.77942 5.88056 5.88072C1.77937 9.98203 0.507998 14.9446 0.234585 20.5497C-0.0388278 25.3893 0.00218407 30.1741 0.00218407 35C0.00218407 39.8259 -0.0388278 44.6244 0.234585 49.4503C0.507998 55.0554 1.77937 60.018 5.88056 64.1193C9.98175 68.2206 14.9442 69.492 20.5492 69.7654C25.3886 70.0388 30.1733 69.9978 34.999 69.9978C39.8384 69.9978 44.6231 70.0388 49.4489 69.7654C55.0538 69.492 60.03 68.2206 64.1175 64.1193C68.2187 60.018 69.49 55.0554 69.7634 49.4503C70.0505 44.6244 69.9958 39.8395 69.9958 35ZM34.9853 52.9637C25.0468 52.9637 17.0221 44.9388 17.0221 35C17.0221 25.0612 25.0468 17.0363 34.9853 17.0363C44.9239 17.0363 52.9486 25.0612 52.9486 35C52.9486 44.9388 44.9239 52.9637 34.9853 52.9637ZM53.6868 20.495C51.3628 20.495 49.4899 18.6221 49.4899 16.298C49.4899 13.974 51.3628 12.101 53.6868 12.101C56.0108 12.101 57.8837 13.974 57.8837 16.298C57.8837 18.6221 56.0108 20.495 53.6868 20.495Z" fill="white"/>
</svg>
