<svg width="70" height="70" viewBox="0 0 70 70" fill="none" xmlns="http://www.w3.org/2000/svg">
<path d="M35 0C15.6543 0 0 15.6543 0 35C0 54.3457 15.6543 70 35 70C54.3457 70 70 54.3457 70 35C70 15.6543 54.3457 0 35 0ZM49.2598 51.543C48.7539 51.543 48.3711 51.2832 47.7285 51.0371C42.6426 47.9883 36.2715 46.334 29.6543 46.334C25.9629 46.334 22.1484 46.8398 18.5801 47.6055C17.9375 47.7285 17.3086 47.9883 16.8027 47.9883C15.5313 47.9883 14.6426 46.9766 14.6426 45.8281C14.6426 44.2969 15.5312 43.668 16.5566 43.4082C20.8906 42.3965 25.2109 41.877 29.668 41.877C37.3105 41.877 44.1738 43.6543 50.0254 47.0996C50.9141 47.6055 51.4199 48.1113 51.4199 49.3965C51.4199 50.5312 50.3945 51.543 49.2598 51.543ZM53.0742 42.2598C52.3086 42.2598 51.8027 42 51.2969 41.6172C45.5684 38.1855 37.6797 36.0117 29.0254 36.0117C24.5684 36.0117 20.7539 36.6543 17.5684 37.543C16.9258 37.666 16.5566 37.9258 15.9141 37.9258C14.3828 37.9258 13.248 36.6543 13.248 35.123C13.248 33.5918 14.0137 32.5801 15.4082 32.1973C19.3594 31.1855 23.2969 30.2832 29.1484 30.2832C38.3086 30.2832 47.2227 32.5801 54.0996 36.7773C55.248 37.4199 55.7539 38.3086 55.7539 39.5801C55.7402 40.9883 54.4688 42.2598 53.0742 42.2598ZM57.3945 31.4316C56.6289 31.4316 56.2461 31.3086 55.6172 30.9258C49.2598 27.1113 39.457 25.0742 29.9141 25.0742C25.2109 25.0742 20.3711 25.5801 15.9141 26.7285C15.4082 26.8516 14.7656 27.1113 14.1367 27.1113C12.2227 27.1113 10.8281 25.5801 10.8281 23.8027C10.8281 21.8887 11.9766 20.877 13.248 20.4941C18.2109 18.9629 23.8164 18.334 29.9141 18.334C40.2227 18.334 51.0371 20.4941 58.9258 25.0742C59.9375 25.7168 60.7031 26.6055 60.7031 28.2598C60.7031 30.1602 59.1855 31.4316 57.3945 31.4316Z" fill="white"/>
</svg>
