<svg width="89" height="65" viewBox="0 0 89 65" fill="none" xmlns="http://www.w3.org/2000/svg">
<path fill-rule="evenodd" clip-rule="evenodd" d="M35.5478 44.5067V18.4516C44.413 22.8044 51.2792 27.0102 59.4005 31.5408C52.7029 35.4184 44.413 39.7639 35.5478 44.5067ZM84.955 5.49291C83.4253 3.38906 80.8196 1.75495 78.0453 1.21266C69.8893 -0.401499 19.0063 -0.40694 10.8555 1.21266C8.63051 1.64794 6.64887 2.69987 4.94709 4.33398C-2.2268 11.2803 0.0208017 48.5258 1.74865 54.558C2.47525 57.1697 3.41566 59.0541 4.59943 60.2892C6.12391 61.9233 8.21158 63.0514 10.6104 63.5538C17.3254 65.0047 51.9224 65.8136 77.9027 63.7714C80.2964 63.3362 82.4153 62.1754 84.0858 60.4706C90.7174 53.5551 90.2654 14.213 84.955 5.49291Z" fill="white"/>
</svg>
